<svg width="30" height="26" viewBox="0 0 30 26" fill="none" xmlns="http://www.w3.org/2000/svg">
    <path fill="#E60000" d="M10.418 17.541h9.875v2.469h-9.875z"/>
    <path d="M6.506 19.062v1.72c0 .95-.788 1.722-1.753 1.722-.966 0-1.753-.773-1.753-1.721v-3.195" stroke="#333" stroke-width="1.5" stroke-linecap="round" stroke-linejoin="round"/>
    <path d="M10.076 19.062H5.004C3.901 19.062 3 18.177 3 17.093v-4.16c0-.437.146-.868.422-1.21l2.58-2.893H24.7l2.58 2.893c.277.342.423.773.423 1.21v4.16c0 1.084-.9 1.969-2.005 1.969H20.44" stroke="#333" stroke-width="1.5" stroke-linecap="round" stroke-linejoin="round"/>
    <path d="M27.71 17.588v3.195c0 .948-.787 1.721-1.753 1.721-.966 0-1.753-.773-1.753-1.721v-1.721M6.002 8.83l2.492-4.98a2.093 2.093 0 0 1 1.874-1.148h9.973c.796 0 1.526.447 1.875 1.148l2.491 4.98M20.447 17.093H10.263V20.4h10.184v-3.306zM6.238 8.83 3.43 7.46M24.602 8.83l2.8-1.37" stroke="#333" stroke-width="1.5" stroke-linecap="round" stroke-linejoin="round"/>
    <path d="M9.79 13.3a1.32 1.32 0 0 1-1.332 1.309c-.739 0-1.332-.582-1.332-1.309 0-.726.593-1.308 1.332-1.308.74 0 1.333.582 1.333 1.308zM23.584 13.3a1.32 1.32 0 0 1-1.332 1.309c-.74 0-1.333-.582-1.333-1.309 0-.726.593-1.308 1.333-1.308.739 0 1.332.582 1.332 1.308zM18.094 14.615h-5.478c-.527 0-.99-.326-1.152-.82L11 12.44a.349.349 0 0 1 .333-.454h8.034c.243 0 .406.23.333.454l-.463 1.354a1.22 1.22 0 0 1-1.152.821h.008z" fill="#333"/>
</svg>
