<svg width="29" height="26" viewBox="0 0 29 26" fill="none" xmlns="http://www.w3.org/2000/svg">
    <path d="M11.265 11.89H3.053c-2.627-4.27.274-7.8 2.053-9.032 4.599-2.3 8.212.684 9.443 2.463 3.613-4.926 8.075-3.147 9.854-1.642 3.942 2.628 2.463 6.843 1.232 8.622h-7.801l-1.642 2.874-3.285-6.158-1.642 2.874z" fill="#E60000"/>
    <path d="M20.381 2.037a6.485 6.485 0 0 0-5.839 3.648 6.49 6.49 0 0 0-5.839-3.648c-3.566 0-6.47 2.886-6.47 6.44a6.437 6.437 0 0 0 1.888 4.547l.021.021L14.55 23.387l10.407-10.342.022-.021a6.408 6.408 0 0 0 1.888-4.547c0-3.561-2.904-6.44-6.478-6.44h-.007z" stroke="#333" stroke-width="1.5" stroke-linejoin="round"/>
    <path d="M3.289 12.047h7.947M17.863 12.047h7.94M11.236 12.047l1.655-3.313M12.89 8.734l1.656 3.313M17.863 12.047l-1.655 3.313M16.208 15.36l-1.662-3.313" stroke="#333" stroke-width="1.5" stroke-linecap="round" stroke-linejoin="round"/>
</svg>
