<svg width="32" height="32" viewBox="0 0 32 32" fill="none" xmlns="http://www.w3.org/2000/svg">
    <g filter="url(#lnbmtyo16a)">
        <rect width="24" height="24" rx="4" fill="#fff"/>
    </g>
    <g clip-path="url(#bny9ofqpmb)">
        <path d="M8.013 16.791c-.283.056-.571.1-.864.133-.294.031-.6.053-.92.066-.322.013-.66.017-1.018.014-.358-.003-.744-.007-1.158-.014-.08 0-.126-.016-.136-.048a.322.322 0 0 1 0-.15l.12-.68c.012-.07.032-.117.06-.141.027-.025.075-.037.143-.037.09.005.18.01.267.01h.261l.625-3.526h-.46c-.126 0-.175-.07-.15-.207l.115-.65c.025-.139.1-.208.225-.208h3.636c.114 0 .16.07.134.207l-.117.66c-.023.133-.092.2-.205.2H8.17l-.611 3.44c.082-.013.166-.024.255-.037l.263-.038c.106-.018.154.019.142.114l-.05.67c-.005.087-.018.143-.04.169-.022.026-.06.044-.113.056l-.003-.003zm-1.556-.849.626-3.525h-.598l-.627 3.535h.303c.1 0 .198-.003.295-.01h.001zM10.63 19.6h-.862c-.062 0-.102-.012-.117-.033-.016-.022-.018-.068-.006-.137l.783-4.412h-.59l-.72 4.064c-.015.082-.033.13-.057.145a.257.257 0 0 1-.127.023h-.802c-.062 0-.104-.007-.124-.023-.02-.015-.024-.064-.01-.145l1.453-8.184c.011-.069.032-.115.058-.136.026-.022.07-.033.133-.033h.802c.062 0 .101.011.117.033.016.021.017.067.006.136l-.542 3.055h.59l.571-3.224c.012-.07.032-.115.058-.137.026-.022.071-.033.133-.033h.854c.063 0 .102.011.12.033.015.021.017.068.005.137l-1.543 8.701c-.012.07-.03.115-.054.137-.023.021-.066.033-.13.033h.002zM19.067 17.998h-7.332c-.074 0-.117-.018-.13-.056a.282.282 0 0 1-.005-.14l.12-.68a.341.341 0 0 1 .057-.151c.026-.032.075-.047.15-.047h7.33c.121 0 .169.066.146.198l-.12.68c-.024.132-.096.198-.215.198l-.001-.002zm-5.993-2.45c-.085.031-.14.04-.168.029-.026-.013-.05-.05-.074-.114l-.215-.66c-.048-.145-.018-.24.092-.284.446-.17.846-.364 1.2-.584a4.93 4.93 0 0 0 .938-.746c.27-.276.501-.584.69-.924.187-.34.34-.719.454-1.14a.43.43 0 0 1 .078-.152c.029-.031.081-.043.16-.037l.801.056c.1.013.158.033.172.062.015.029.009.086-.019.174-.041.175-.09.342-.14.5.025.313.099.607.224.876.126.27.288.515.488.735.2.22.427.413.682.58.255.167.527.3.816.401.07.026.105.056.103.095 0 .038-.024.091-.07.16l-.432.698a.537.537 0 0 0-.058.085c-.016.024-.029.037-.04.037-.026.019-.071.019-.137 0a2.916 2.916 0 0 1-.71-.296 4.341 4.341 0 0 1-.67-.476 3.611 3.611 0 0 1-.986-1.367c-.391.533-.863.994-1.415 1.381s-1.14.69-1.765.91h.001z" fill="#231F20"/>
        <path d="M2.95 4.8h.82l-.137.771h1.109l-.135.762H3.533l-.269 1.52s-.058.2.17.232h.853l-.13.738h-.855s-1.014.088-.892-.915L2.95 4.8zM16.689 4.8h.82l-.137.771h1.108l-.134.762H17.27l-.269 1.52s-.058.2.17.232h.854l-.132.738h-.854s-1.014.088-.89-.915l.54-3.108zM6.454 5.55c-.93 0-1.818.75-1.983 1.675C4.308 8.15 4.93 8.9 5.86 8.9c.931 0 1.818-.75 1.984-1.675.165-.926-.458-1.675-1.389-1.675zM5.965 8.15c-.505 0-.842-.407-.754-.91.09-.501.57-.909 1.077-.909.506 0 .842.408.753.91-.09.502-.572.91-1.076.91zM20.184 5.528c-.93 0-1.818.75-1.983 1.675-.163.925.458 1.677 1.388 1.677.931 0 1.819-.75 1.984-1.677.163-.925-.458-1.675-1.389-1.675zm-.489 2.602c-.505 0-.842-.407-.754-.91.09-.502.572-.909 1.077-.909s.842.407.753.91c-.09.502-.57.909-1.076.909zM11.195 8.823h.8l.396-2.237c-.01-1.003-.863-1.015-.863-1.015-.743-.066-1.103.341-1.103.341-.265-.385-.834-.364-.834-.364-1.185.055-1.417 1.114-1.417 1.114L7.79 8.833h.82l.376-2.116s.097-.419.54-.419c0 0 .359-.022.334.43l-.373 2.105h.809l.373-2.105s.106-.408.542-.43c0 0 .387 0 .338.463l-.354 2.06.001.002zM15.927 7.215c.163-.926-.457-1.677-1.388-1.677-.931 0-1.818.75-1.983 1.677-.164.925.457 1.675 1.388 1.675.339 0 .671-.1.965-.27l-.034.21.767-.007.284-1.598.001-.012v.002zm-1.877.925c-.506 0-.843-.407-.755-.91.09-.502.57-.909 1.076-.909.505 0 .842.407.753.91-.09.502-.57.909-1.076.909h.002z" fill="#C9252C"/>
    </g>
    <defs>
        <clipPath id="bny9ofqpmb">
            <path fill="#fff" d="M2.4 4.8h19.2v14.8H2.4z"/>
        </clipPath>
        <filter id="lnbmtyo16a" x="0" y="0" width="32" height="32" filterUnits="userSpaceOnUse" color-interpolation-filters="sRGB">
            <feFlood flood-opacity="0" result="BackgroundImageFix"/>
            <feColorMatrix in="SourceAlpha" values="0 0 0 0 0 0 0 0 0 0 0 0 0 0 0 0 0 0 127 0" result="hardAlpha"/>
            <feOffset dx="4" dy="4"/>
            <feGaussianBlur stdDeviation="2"/>
            <feComposite in2="hardAlpha" operator="out"/>
            <feColorMatrix values="0 0 0 0 0 0 0 0 0 0 0 0 0 0 0 0 0 0 0.06 0"/>
            <feBlend in2="BackgroundImageFix" result="effect1_dropShadow_55_445"/>
            <feBlend in="SourceGraphic" in2="effect1_dropShadow_55_445" result="shape"/>
        </filter>
    </defs>
</svg>
