<svg width="26" height="26" viewBox="0 0 26 26" fill="none" xmlns="http://www.w3.org/2000/svg">
    <path d="M11.525 4.333v-.15H5.958a1.233 1.233 0 0 0-1.233 1.234v15.166a1.233 1.233 0 0 0 1.233 1.234h6.5a.933.933 0 1 1 0 1.866h-6.5a3.1 3.1 0 0 1-3.1-3.1V5.417a3.1 3.1 0 0 1 3.1-3.1h6.55c.098.02.193.054.28.101l.046.025.051-.01a.164.164 0 0 1 .04-.002c.088.044.17.1.241.168l6.497 6.497c.066.07.12.148.164.234v.087l.007.023c.028.083.047.168.058.254v6.556a.933.933 0 0 1-1.867 0v-5.567h-3.4a3.1 3.1 0 0 1-3.1-3.1v-3.25zm2.123 1.422-.256-.256v2.084a1.233 1.233 0 0 0 1.233 1.234h2.085l-.256-.256-2.806-2.806zm7.897 11.998a.934.934 0 0 1 1.326 0v.001a.934.934 0 0 1 0 1.325l-4.333 4.334a.934.934 0 0 1-1.326 0l-2.167-2.167a.936.936 0 0 1 .305-1.53.938.938 0 0 1 1.022.204l1.397 1.408.106.107.106-.107 3.564-3.575zm-6.92-2.736h-6.5a.934.934 0 0 1 0-1.867h6.5a.933.933 0 1 1 0 1.867zm-6.5 2.466h4.333a.933.933 0 0 1 0 1.867H8.125a.933.933 0 1 1 0-1.867zm1.083-6.8H8.125a.933.933 0 1 1 0-1.866h1.083a.933.933 0 0 1 0 1.866z" fill="#838383" stroke="#fff" stroke-width=".3"/>
</svg>
