<svg width="26" height="26" viewBox="0 0 26 26" fill="none" xmlns="http://www.w3.org/2000/svg">
    <mask id="bgjwjbhp8a" fill="#fff">
        <path d="M21.558 13.715a1.083 1.083 0 0 1 0-1.43l1.387-1.56a1.083 1.083 0 0 0 .13-1.268L20.908 5.71a1.083 1.083 0 0 0-1.159-.52l-2.037.412a1.083 1.083 0 0 1-1.245-.715l-.661-1.983a1.083 1.083 0 0 0-1.03-.736h-4.333a1.083 1.083 0 0 0-1.083.736l-.607 1.983a1.083 1.083 0 0 1-1.246.715l-2.09-.412a1.083 1.083 0 0 0-1.084.52L2.167 9.457a1.083 1.083 0 0 0 .108 1.268l1.376 1.56a1.083 1.083 0 0 1 0 1.43l-1.376 1.56a1.083 1.083 0 0 0-.108 1.268l2.166 3.748a1.083 1.083 0 0 0 1.16.52l2.036-.412a1.083 1.083 0 0 1 1.246.715l.66 1.983a1.083 1.083 0 0 0 1.084.736h4.333a1.083 1.083 0 0 0 1.03-.736l.66-1.983a1.083 1.083 0 0 1 1.246-.715l2.037.412a1.083 1.083 0 0 0 1.16-.52l2.166-3.748a1.083 1.083 0 0 0-.13-1.268l-1.463-1.56zm-1.614 1.452.867.975-1.387 2.405-1.278-.26a3.25 3.25 0 0 0-3.738 2.166l-.411 1.214h-2.774l-.39-1.235a3.25 3.25 0 0 0-3.737-2.167l-1.279.26-1.408-2.394.867-.975a3.25 3.25 0 0 0 0-4.334l-.867-.974 1.387-2.384 1.278.26a3.25 3.25 0 0 0 3.738-2.167l.411-1.224h2.774l.411 1.235a3.25 3.25 0 0 0 3.738 2.167l1.278-.26 1.387 2.405-.867.975a3.25 3.25 0 0 0 0 4.312zm-7.334-6.5a4.333 4.333 0 1 0 0 8.666 4.333 4.333 0 0 0 0-8.666zm0 6.5a2.167 2.167 0 1 1 0-4.333 2.167 2.167 0 0 1 0 4.333z"/>
    </mask>
    <path d="M21.558 13.715a1.083 1.083 0 0 1 0-1.43l1.387-1.56a1.083 1.083 0 0 0 .13-1.268L20.908 5.71a1.083 1.083 0 0 0-1.159-.52l-2.037.412a1.083 1.083 0 0 1-1.245-.715l-.661-1.983a1.083 1.083 0 0 0-1.03-.736h-4.333a1.083 1.083 0 0 0-1.083.736l-.607 1.983a1.083 1.083 0 0 1-1.246.715l-2.09-.412a1.083 1.083 0 0 0-1.084.52L2.167 9.457a1.083 1.083 0 0 0 .108 1.268l1.376 1.56a1.083 1.083 0 0 1 0 1.43l-1.376 1.56a1.083 1.083 0 0 0-.108 1.268l2.166 3.748a1.083 1.083 0 0 0 1.16.52l2.036-.412a1.083 1.083 0 0 1 1.246.715l.66 1.983a1.083 1.083 0 0 0 1.084.736h4.333a1.083 1.083 0 0 0 1.03-.736l.66-1.983a1.083 1.083 0 0 1 1.246-.715l2.037.412a1.083 1.083 0 0 0 1.16-.52l2.166-3.748a1.083 1.083 0 0 0-.13-1.268l-1.463-1.56zm-1.614 1.452.867.975-1.387 2.405-1.278-.26a3.25 3.25 0 0 0-3.738 2.166l-.411 1.214h-2.774l-.39-1.235a3.25 3.25 0 0 0-3.737-2.167l-1.279.26-1.408-2.394.867-.975a3.25 3.25 0 0 0 0-4.334l-.867-.974 1.387-2.384 1.278.26a3.25 3.25 0 0 0 3.738-2.167l.411-1.224h2.774l.411 1.235a3.25 3.25 0 0 0 3.738 2.167l1.278-.26 1.387 2.405-.867.975a3.25 3.25 0 0 0 0 4.312zm-7.334-6.5a4.333 4.333 0 1 0 0 8.666 4.333 4.333 0 0 0 0-8.666zm0 6.5a2.167 2.167 0 1 1 0-4.333 2.167 2.167 0 0 1 0 4.333z" fill="#838383" stroke="#fff" stroke-width=".6" mask="url(#bgjwjbhp8a)"/>
</svg>
