<svg width="22" height="22" viewBox="0 0 22 22" fill="none" xmlns="http://www.w3.org/2000/svg">
    <circle cx="11" cy="11" r="10.25" fill="#fff" stroke="url(#jnyrwqzfoa)" stroke-width="1.5"/>
    <path d="M12.675 8.832H9.979l-1.347 2.322 1.347 2.323h2.696l1.347-2.322-1.348-2.323z" fill="#32B9C4"/>
    <path d="M14.022 11.155h-2.655l-1.388 2.322h2.696l1.347-2.322z" fill="#1B9DBD"/>
    <path d="M9.979 8.832h2.696l1.347 2.323h-2.655L9.979 8.832z" fill="#65C2D7"/>
    <path d="m9.98 8.832-1.348 2.323 1.347 2.322 1.388-2.322-1.388-2.323z" fill="#32B9C4"/>
    <path d="M12.079 4.889h2.931l3.644 6.265-3.643 6.265h-2.932v-2.443h1.506l2.218-3.822-2.218-3.822H12.08V4.889z" fill="url(#6fy8iqdxab)"/>
    <path d="M10.575 4.889H7.643L4 11.154l3.643 6.265h2.932v-2.443H9.068l-2.222-3.823L9.064 7.33l1.51.002V4.889z" fill="url(#dqus3l5emc)"/>
    <defs>
        <linearGradient id="jnyrwqzfoa" x1="0" y1="2.444" x2="22" y2="19.148" gradientUnits="userSpaceOnUse">
            <stop stop-color="#34B1DC"/>
            <stop offset="1" stop-color="#44BAAA"/>
        </linearGradient>
        <linearGradient id="6fy8iqdxab" x1="9.904" y1="6.837" x2="17.273" y2="15.663" gradientUnits="userSpaceOnUse">
            <stop stop-color="#43B9A9"/>
            <stop offset=".094" stop-color="#3DB6BB"/>
            <stop offset=".229" stop-color="#37B2CE"/>
            <stop offset=".388" stop-color="#33B0DB"/>
            <stop offset=".592" stop-color="#31AEE3"/>
            <stop offset="1" stop-color="#30AEE5"/>
        </linearGradient>
        <linearGradient id="dqus3l5emc" x1="6.605" y1="8.185" x2="12.722" y2="15.513" gradientUnits="userSpaceOnUse">
            <stop stop-color="#43B9A9"/>
            <stop offset=".234" stop-color="#41B8AF"/>
            <stop offset=".538" stop-color="#3CB5BF"/>
            <stop offset=".881" stop-color="#34B0DA"/>
            <stop offset="1" stop-color="#30AEE5"/>
        </linearGradient>
    </defs>
</svg>
