<svg width="240" height="240" viewBox="0 0 240 240" fill="none" xmlns="http://www.w3.org/2000/svg">
<g clip-path="url(#clip0_648_1176)">
<path d="M120 0C53.7251 0 0 53.7251 0 120C0 186.275 53.7251 240 120 240C186.275 240 240 186.275 240 120C240 53.7251 186.275 0 120 0ZM41.4514 112.827V91.6651H173.442V114.261C173.442 114.979 173.8 115.696 174.518 116.413C175.235 117.131 175.952 117.131 176.67 117.131H179.898C190.299 117.131 198.907 125.739 198.907 136.14C198.549 146.9 189.941 155.508 179.539 155.508H176.311C175.594 155.508 174.876 155.867 174.159 156.226C173.442 156.943 173.083 157.66 173.083 158.378V183.484H41.4514V162.323C52.9288 160.171 61.8956 149.77 61.8956 137.575C61.8956 125.38 53.2875 114.979 41.4514 112.827ZM183.639 107.447H183.28V84.8504C183.28 83.4157 181.845 81.981 180.411 81.981H63.8431L171.803 52.9288L177.541 67.6343C177.9 68.7103 178.976 69.4276 180.411 69.4276H183.639C194.04 69.4276 202.648 78.0357 202.648 88.4371C202.648 98.8385 194.04 107.447 183.639 107.447Z" fill="url(#paint0_linear_648_1176)"/>
</g>
<defs>
<linearGradient id="paint0_linear_648_1176" x1="59.1804" y1="26.9002" x2="148.848" y2="184.715" gradientUnits="userSpaceOnUse">
<stop stop-color="#16CDB8"/>
<stop offset="1" stop-color="#168CA4"/>
</linearGradient>
<clipPath id="clip0_648_1176">
<rect width="240" height="240" fill="white"/>
</clipPath>
</defs>
</svg>
