<svg width="120" height="120" viewBox="0 0 120 120" fill="none" xmlns="http://www.w3.org/2000/svg">
<g clip-path="url(#clip0_647_714)">
<path d="M60 0C26.8625 0 0 26.8625 0 60C0 93.1375 26.8625 120 60 120C93.1375 120 120 93.1375 120 60C120 26.8625 93.1375 0 60 0ZM20.7257 56.4133V45.8326H86.7209V57.1306C86.7209 57.4893 86.9002 57.848 87.2589 58.2067C87.6175 58.5653 87.9762 58.5653 88.3349 58.5653H89.9489C95.1496 58.5653 99.4536 62.8694 99.4536 68.0701C99.2743 73.4501 94.9703 77.7541 89.7696 77.7541H88.1555C87.7969 77.7541 87.4382 77.9335 87.0795 78.1128C86.7209 78.4715 86.5415 78.8301 86.5415 79.1888V91.7422H20.7257V81.1615C26.4644 80.0855 30.9478 74.8848 30.9478 68.7874C30.9478 62.69 26.6438 57.4893 20.7257 56.4133ZM91.8193 53.7233H91.64V42.4252C91.64 41.7079 90.9227 40.9905 90.2053 40.9905H31.9216L85.9013 26.4644L88.7707 33.8171C88.95 34.3551 89.488 34.7138 90.2053 34.7138H91.8193C97.0201 34.7138 101.324 39.0178 101.324 44.2185C101.324 49.4193 97.0201 53.7233 91.8193 53.7233Z" fill="url(#paint0_linear_647_714)"/>
</g>
<defs>
<linearGradient id="paint0_linear_647_714" x1="29.5902" y1="13.4501" x2="74.4239" y2="92.3574" gradientUnits="userSpaceOnUse">
<stop stop-color="#16CDB8"/>
<stop offset="1" stop-color="#168CA4"/>
</linearGradient>
<clipPath id="clip0_647_714">
<rect width="120" height="120" fill="white"/>
</clipPath>
</defs>
</svg>
