<svg width="56" height="20" viewBox="0 0 56 20" fill="none" xmlns="http://www.w3.org/2000/svg">
    <rect x=".25" y=".25" width="55.5" height="19.5" rx="9.75" stroke="#E60000" stroke-width=".5"/>
    <path d="M15.253 9.621V7.223h-4.895v2.398h4.895zm.89-3.124v3.839H9.479V6.497h6.666zm1.145 5.181v.726H13.24v3.399h-.902v-3.399H8.334v-.726h8.954zm4.564.308v1.87h2.255v-1.87h-2.255zm3.146 1.87h2.42v.737h-8.965v-.737h2.508v-1.87h-1.386V8.939h5.852V7.41h-5.874v-.737h6.754v2.992h-5.841v1.584h6.072v.737h-1.54v1.87zm6.863-1.243v-2.607h-2.068v2.607h2.068zm0-3.322V6.882h.847v6.457h-3.773V6.882h.858v2.409h2.068zm4.246-3.344h.858v9.867h-.858v-5.225h-1.331v4.741h-.847V6.167h.847v3.685h1.331V5.947zm10.977 3.245-.34.715c-1.508-.253-2.96-1.034-3.587-2.156-.616 1.122-2.068 1.903-3.575 2.156l-.34-.715c1.76-.242 3.453-1.342 3.453-2.651v-.44h.924v.44c0 1.309 1.705 2.409 3.465 2.651zm-3.927 5.918c1.562 0 2.464-.363 2.464-1.012s-.902-1.012-2.464-1.012c-1.562 0-2.464.363-2.464 1.012s.902 1.012 2.464 1.012zm0-2.717c2.112 0 3.377.605 3.377 1.705s-1.265 1.705-3.377 1.705-3.377-.605-3.377-1.705 1.265-1.705 3.377-1.705zm.451-1.551h4.015v.726h-8.92v-.726h4.003V9.39h.902v1.452z" fill="#E60000"/>
</svg>
