<svg width="84" height="20" viewBox="0 0 84 20" fill="none" xmlns="http://www.w3.org/2000/svg">
    <rect x=".5" y=".5" width="83" height="19" rx="9.5" fill="#fff" stroke="#CCC"/>
    <path d="M16.143 16.003c-1.052 0-1.905-.838-1.905-1.865 0-1.027.856-1.866 1.905-1.866s1.904.839 1.904 1.866c0 1.027-.855 1.865-1.904 1.865zm0-2.991c-.635 0-1.15.504-1.15 1.123 0 .618.515 1.123 1.15 1.123.635 0 1.15-.505 1.15-1.123 0-.62-.515-1.123-1.15-1.123zM22.145 16.003c-1.052 0-1.905-.838-1.905-1.865 0-1.027.856-1.866 1.905-1.866s1.904.839 1.904 1.866c0 1.027-.852 1.865-1.904 1.865zm0-2.991c-.635 0-1.15.504-1.15 1.123 0 .618.515 1.123 1.15 1.123.635 0 1.146-.505 1.146-1.123 0-.62-.515-1.123-1.146-1.123z" fill="#2E2E2E"/>
    <path d="M20.616 14.509h-2.947a.376.376 0 0 1-.379-.371c0-.205.17-.372.38-.372h2.946c.208 0 .379.167.379.372 0 .204-.17.37-.379.37z" fill="#2E2E2E"/>
    <path d="M25.22 14.509h-1.55a.376.376 0 0 1-.38-.371c0-.204.171-.372.38-.372h1.175v-2.96l-1.232-3.084h-2.919v3.013c0 .204-.17.37-.379.37h-7.179v2.661h1.478c.209 0 .38.168.38.372s-.171.37-.38.37h-1.857a.376.376 0 0 1-.38-.37v-3.4c0-.204.171-.371.38-.371h7.18V7.353c0-.204.17-.37.378-.37h3.557c.155 0 .297.092.35.234l1.352 3.385a.4.4 0 0 1 .026.136v3.4c0 .204-.171.37-.38.37zM13.73 6.608H10.38A.376.376 0 0 1 10 6.237c0-.205.17-.372.379-.372h3.351c.209 0 .38.167.38.372 0 .204-.171.37-.38.37zM13.73 7.802h-2.574a.376.376 0 0 1-.379-.371c0-.205.17-.372.38-.372h2.574c.208 0 .379.167.379.372 0 .204-.171.37-.38.37zM13.73 8.993h-1.797a.376.376 0 0 1-.38-.371c0-.204.171-.372.38-.372h1.797c.208 0 .379.168.379.372s-.17.371-.38.371z" fill="#2E2E2E"/>
    <path d="M25.221 11.109h-4.908a.376.376 0 0 1-.38-.371c0-.204.171-.371.38-.371h4.908c.208 0 .379.167.379.37 0 .205-.17.372-.379.372zM20.312 7.725a.376.376 0 0 1-.379-.372V4.968a.23.23 0 0 0-.23-.226h-7.04a.376.376 0 0 1-.38-.37c0-.205.17-.372.38-.372h7.043c.543 0 .985.433.985.965V7.35c0 .205-.17.372-.379.372v.003zM40.719 9.512h-7.69V4.848h7.69v4.664zm-.88-.781V5.629h-5.93v3.102h5.93zm-7.337 3.267v-.781h8.756v.781h-3.95v2.75h-.89v-2.75h-3.916zm11.967-3.63v1.936h6.941v.759h-1.65v2.31h2.057v.77h-8.756v-.77h2.123v-2.31H43.59V7.609h6.81V5.684h-6.81v-.77h7.69v3.454h-6.81zm4.411 2.695h-2.827v2.31h2.827v-2.31zm5.896-2.585h1.903V4.914h.858v8.976h-3.608V4.914h.847v3.564zm1.903 4.664V9.237h-1.903v3.905h1.903zm5.258 1.441h-.858V9.567h-1.441v4.906h-.858v-9.68h.858v4.004h1.44V4.738h.859v9.845zm6.6-8.063c-.683.935-2.289 1.639-4.137 1.848v-.77c1.826-.253 3.696-1.078 3.696-2.475v-.33h.891v.33c0 1.397 1.804 2.222 3.707 2.475v.77c-1.903-.22-3.476-.924-4.158-1.848zm-4.412 3.696v-.759h3.971V7.961h.891v1.496h4.004v.759h-8.866zm.473 2.871c0-.539.253-.935.737-1.221.671-.396 1.771-.583 3.234-.583s2.552.187 3.223.583c.484.286.748.682.748 1.221 0 .528-.264.935-.748 1.232-.67.396-1.76.561-3.223.561-1.463 0-2.563-.165-3.234-.561-.484-.297-.737-.704-.737-1.232zm.891 0c0 .253.132.462.385.616.484.297 1.386.44 2.695.44 1.31 0 2.211-.143 2.695-.44.264-.154.385-.363.385-.616 0-.242-.12-.451-.385-.616-.484-.297-1.386-.44-2.695-.44s-2.21.143-2.695.44c-.253.165-.385.374-.385.616z" fill="#2E2E2E"/>
</svg>
