<svg width="24" height="24" viewBox="0 0 24 24" fill="none" xmlns="http://www.w3.org/2000/svg">
    <path d="m20.747 19.483.072-.07a1 1 0 0 1 0 1.39v.001a1 1 0 0 1-1.42 0l1.348-1.321zm0 0 .07-.071-3.273-3.25a8.206 8.206 0 0 0-.98-11.168A8.191 8.191 0 0 0 5.3 5.302a8.204 8.204 0 0 0 5.123 13.973 8.191 8.191 0 0 0 5.73-1.72l3.246 3.25 1.348-1.322zm-9.633-2.162a6.193 6.193 0 0 1-5.725-3.828 6.205 6.205 0 0 1 1.344-6.758A6.195 6.195 0 0 1 17.31 11.12a6.204 6.204 0 0 1-1.815 4.385 6.194 6.194 0 0 1-4.381 1.816z" fill="#E60000" stroke="#E60000" stroke-width=".2"/>
</svg>
