<svg width="80" height="24" viewBox="0 0 80 24" fill="none" xmlns="http://www.w3.org/2000/svg">
    <path d="M27.347 5.944v1.018c0 .15.126.271.281.271h10.269c.335 0 .61.267.61.59v.058c0 .324-.275.59-.61.59H27.628a.276.276 0 0 0-.281.272V9.78c0 .15.126.271.281.271h10.538c.336 0 .61.266.61.59v.058c0 .324-.275.59-.61.59h-4.921a.276.276 0 0 0-.282.272v.885c0 .15.126.272.282.272h6.304c.336 0 .611.266.611.59v.058c0 .324-.275.59-.61.59H25.06a.603.603 0 0 1-.61-.59v-.058c0-.324.274-.59.61-.59h6.263a.276.276 0 0 0 .281-.272v-.885a.276.276 0 0 0-.281-.272h-5.06a.276.276 0 0 1-.281-.272v-6.31c0-.15.126-.272.281-.272h11.79c.335 0 .61.266.61.59v.058c0 .324-.275.59-.61.59H27.628a.276.276 0 0 0-.281.272zm1.808 14.588c-1.191-.035-2.095-.278-2.7-.712-.605-.434-.916-1.076-.916-1.915 0-.838.287-1.504.856-1.955.569-.45 1.503-.688 2.802-.711a85.103 85.103 0 0 1 1.64-.018h2.917c.497 0 1.047.006 1.64.018 1.281 0 2.215.237 2.79.706.575.468.862 1.122.862 1.96 0 1.678-1.21 2.557-3.634 2.632-.599.012-1.144.023-1.64.03-.497.005-.994.01-1.48.01-.484 0-.981 0-1.484-.01-.503-.007-1.054-.018-1.653-.03v-.005zm.156-1.238a239.966 239.966 0 0 0 5.963 0 9.215 9.215 0 0 0 1.138-.093c.305-.052.55-.127.736-.237a.974.974 0 0 0 .407-.41c.084-.168.126-.382.126-.631a1.79 1.79 0 0 0-.107-.665.905.905 0 0 0-.378-.44c-.18-.11-.43-.19-.748-.243a7.672 7.672 0 0 0-1.198-.075 238.408 238.408 0 0 0-5.927 0c-.491 0-.892.029-1.204.087-.311.058-.556.138-.736.254a.918.918 0 0 0-.377.434 1.738 1.738 0 0 0-.108.66c0 .265.042.456.126.63a.972.972 0 0 0 .407.41c.185.105.43.186.736.238.306.052.683.08 1.138.092l.006-.011zM45.542 5.944v1.018c0 .15.126.271.282.271h10.268c.336 0 .61.267.61.59v.058c0 .324-.274.59-.61.59H45.824a.276.276 0 0 0-.282.272V9.78c0 .15.126.271.282.271h10.538c.335 0 .61.266.61.59v.058c0 .324-.275.59-.61.59H51.44a.276.276 0 0 0-.281.272v.885c0 .15.125.272.281.272h6.305c.335 0 .61.266.61.59v.058c0 .324-.275.59-.61.59h-14.49a.603.603 0 0 1-.61-.59v-.058c0-.324.275-.59.61-.59h6.263a.276.276 0 0 0 .282-.272v-.885a.277.277 0 0 0-.282-.272h-5.06a.276.276 0 0 1-.28-.272v-6.31c0-.15.125-.272.28-.272h11.784c.335 0 .61.266.61.59v.058c0 .324-.275.59-.61.59H45.818a.277.277 0 0 0-.282.272h.006zm1.809 14.588c-1.192-.035-2.096-.278-2.7-.712-.605-.434-.917-1.076-.917-1.915 0-.838.288-1.504.856-1.955.57-.45 1.503-.688 2.802-.711a85.113 85.113 0 0 1 1.641-.018h2.916c.497 0 1.048.006 1.64.018 1.282 0 2.216.237 2.79.706.575.468.863 1.122.863 1.96 0 1.678-1.21 2.557-3.634 2.632-.6.012-1.144.023-1.641.03-.497.005-.994.01-1.479.01-.485 0-.982 0-1.485-.01-.503-.007-1.054-.018-1.652-.03v-.005zm.155-1.238a239.989 239.989 0 0 0 5.964 0 9.213 9.213 0 0 0 1.137-.093c.306-.052.551-.127.737-.237a.974.974 0 0 0 .407-.41c.084-.168.126-.382.126-.631 0-.266-.036-.486-.108-.665a.904.904 0 0 0-.377-.44c-.18-.11-.431-.19-.749-.243a7.673 7.673 0 0 0-1.197-.075 238.408 238.408 0 0 0-5.928 0c-.49 0-.892.029-1.203.087-.311.058-.557.138-.737.254a.918.918 0 0 0-.377.434 1.738 1.738 0 0 0-.108.66c0 .265.042.456.126.63a.972.972 0 0 0 .407.41c.186.105.431.186.737.238.305.052.682.08 1.137.092l.006-.011zM67.995 10.53v-.96a.276.276 0 0 0-.281-.272h-5.06a.276.276 0 0 1-.281-.271V4.706c0-.15.126-.272.281-.272h12.059c.156 0 .281.121.281.272v4.32c0 .15-.125.272-.281.272h-5.077a.276.276 0 0 0-.282.272v.96c0 .15.126.272.282.272h6.304c.336 0 .611.266.611.59v.058c0 .324-.275.59-.61.59H61.45a.603.603 0 0 1-.61-.59v-.058c0-.324.274-.59.61-.59h6.263a.276.276 0 0 0 .281-.271zm6.718 6.884h-10.7a.276.276 0 0 0-.281.272v1.318c0 .15.126.272.281.272h10.658c.335 0 .61.266.61.59v.058c0 .324-.275.59-.61.59H62.654a.276.276 0 0 1-.281-.272v-3.794c0-.15.126-.272.281-.272h10.7a.276.276 0 0 0 .281-.272v-1.093a.276.276 0 0 0-.281-.272H62.99a.603.603 0 0 1-.611-.59v-.058c0-.324.275-.59.61-.59h11.73c.156 0 .281.122.281.272v3.575c0 .15-.126.271-.281.271l-.006-.005zm-10.7-9.353h9.335a.276.276 0 0 0 .281-.272V5.944a.276.276 0 0 0-.281-.272h-9.335a.276.276 0 0 0-.281.272v1.845c0 .15.126.272.281.272z" fill="#E60000" stroke="#E60000" stroke-width=".5" stroke-miterlimit="10"/>
    <path d="M13.412 7.309H12.07V6.005c0-.697-.271-1.367-.753-1.86a2.54 2.54 0 0 0-1.817-.77 2.54 2.54 0 0 0-1.817.77 2.663 2.663 0 0 0-.753 1.86V7.31H5.588V6.005c0-1.062.412-2.08 1.146-2.832A3.866 3.866 0 0 1 9.5 2c1.037 0 2.033.422 2.766 1.173a4.054 4.054 0 0 1 1.146 2.832V7.31zM18.206 7.588H.794a.808.808 0 0 0-.602.271.773.773 0 0 0-.183.624l1.84 11.856a.774.774 0 0 0 .268.473.804.804 0 0 0 .518.188H16.32c.19 0 .372-.066.516-.187a.774.774 0 0 0 .269-.471L18.99 8.486a.762.762 0 0 0-.182-.626.794.794 0 0 0-.603-.272zM7.816 10.18a.706.706 0 0 1-.21.515.735.735 0 0 1-.523.215.747.747 0 0 1-.523-.215.718.718 0 0 1-.211-.515v-.418a.712.712 0 0 1 .219-.502.742.742 0 0 1 1.03 0 .712.712 0 0 1 .218.502v.418zm4.835 0a.706.706 0 0 1-.21.515.735.735 0 0 1-.524.215.747.747 0 0 1-.522-.215.717.717 0 0 1-.211-.515v-.418a.712.712 0 0 1 .219-.502.742.742 0 0 1 1.03 0 .712.712 0 0 1 .218.502v.418z" fill="#E60000"/>
</svg>
