<svg width="15" height="12" viewBox="0 0 15 12" fill="none" xmlns="http://www.w3.org/2000/svg">
    <path d="M14.846 5.74a.652.652 0 0 1 0 .52C13.342 9.752 10.523 11.9 7.5 11.9c-3.023 0-5.842-2.148-7.346-5.64a.65.65 0 0 1 0-.52C1.658 2.248 4.477.1 7.5.1c3.023 0 5.842 2.148 7.346 5.64zm-13.36.218L1.466 6l.02.042C2.794 8.847 5.072 10.6 7.5 10.6c2.428 0 4.706-1.753 6.014-4.558l.02-.042-.02-.042C12.206 3.153 9.928 1.4 7.5 1.4c-2.428 0-4.706 1.753-6.014 4.558zm4.403-2.37A2.898 2.898 0 0 1 9.91 7.612 2.9 2.9 0 1 1 5.89 3.59zm.722 3.742A1.6 1.6 0 1 0 8.39 4.671a1.6 1.6 0 0 0-1.778 2.66z" fill="#B9B9B9" stroke="#fff" stroke-width=".2"/>
</svg>
