<svg width="14" height="14" viewBox="0 0 14 14" fill="none" xmlns="http://www.w3.org/2000/svg">
    <path d="M7 11.083a.583.583 0 1 0 0-1.167.583.583 0 0 0 0 1.167zm2.917 0a.583.583 0 1 0 0-1.166.583.583 0 0 0 0 1.166zm0-2.333a.583.583 0 1 0 0-1.166.583.583 0 0 0 0 1.166zM7 8.75a.583.583 0 1 0 0-1.167.583.583 0 0 0 0 1.167zm4.083-7H10.5v-.583a.583.583 0 0 0-1.167 0v.583H4.667v-.583a.583.583 0 0 0-1.167 0v.583h-.583a1.75 1.75 0 0 0-1.75 1.75v8.167a1.75 1.75 0 0 0 1.75 1.75h8.166a1.75 1.75 0 0 0 1.75-1.75V3.5a1.75 1.75 0 0 0-1.75-1.75zm.584 9.917a.583.583 0 0 1-.584.583H2.917a.583.583 0 0 1-.584-.583v-5.25h9.334v5.25zm0-6.417H2.333V3.5a.583.583 0 0 1 .584-.583H3.5V3.5a.583.583 0 0 0 1.167 0v-.583h4.666V3.5a.583.583 0 0 0 1.167 0v-.583h.583a.583.583 0 0 1 .584.583v1.75zm-7.584 3.5a.583.583 0 1 0 0-1.167.583.583 0 0 0 0 1.167zm0 2.333a.583.583 0 1 0 0-1.167.583.583 0 0 0 0 1.167z" fill="#6B6B6B"/>
</svg>
